G75*
%MOIN*%
%OFA0B0*%
%FSLAX25Y25*%
%IPPOS*%
%LPD*%
%AMOC8*
5,1,8,0,0,1.08239X$1,22.5*
%
%ADD10C,0.09200*%
%ADD11R,0.09200X0.09200*%
%ADD12C,0.13198*%
%ADD13C,0.02765*%
%ADD14C,0.07200*%
D10*
X0079428Y0011000D03*
X0089428Y0011000D03*
X0099428Y0011000D03*
X0109428Y0011000D03*
X0119428Y0011000D03*
X0129428Y0011000D03*
X0139428Y0011000D03*
X0164428Y0066000D03*
X0164428Y0076000D03*
X0164428Y0086000D03*
X0164428Y0096000D03*
X0164428Y0106000D03*
X0164428Y0116000D03*
X0149428Y0131000D03*
X0139428Y0131000D03*
X0119428Y0131000D03*
X0109428Y0131000D03*
X0099428Y0131000D03*
X0089428Y0131000D03*
X0079428Y0131000D03*
X0069428Y0131000D03*
X0059428Y0131000D03*
D11*
X0129428Y0131000D03*
X0149428Y0011000D03*
X0069428Y0011000D03*
X0059428Y0011000D03*
D12*
X0046928Y0013500D03*
X0161928Y0013500D03*
X0161928Y0128500D03*
X0046928Y0128500D03*
D13*
X0160885Y0033500D03*
X0167972Y0033500D03*
D14*
X0148328Y0020900D03*
X0126928Y0037100D03*
X0136981Y0050263D03*
X0145528Y0050400D03*
X0079428Y0021000D03*
X0066328Y0029200D03*
X0136928Y0106000D03*
X0099142Y0121910D03*
M02*
