G75*
%MOIN*%
%OFA0B0*%
%FSLAX25Y25*%
%IPPOS*%
%LPD*%
%AMOC8*
5,1,8,0,0,1.08239X$1,22.5*
%
%ADD10C,0.00000*%
%ADD11C,0.01000*%
D10*
X0034428Y0001000D02*
X0034428Y0140961D01*
X0174629Y0141161D01*
X0174629Y0140800D02*
X0174428Y0001000D01*
X0034428Y0001000D01*
X0040629Y0013500D02*
X0040631Y0013658D01*
X0040637Y0013816D01*
X0040647Y0013974D01*
X0040661Y0014132D01*
X0040679Y0014289D01*
X0040700Y0014446D01*
X0040726Y0014602D01*
X0040756Y0014758D01*
X0040789Y0014913D01*
X0040827Y0015066D01*
X0040868Y0015219D01*
X0040913Y0015371D01*
X0040962Y0015522D01*
X0041015Y0015671D01*
X0041071Y0015819D01*
X0041131Y0015965D01*
X0041195Y0016110D01*
X0041263Y0016253D01*
X0041334Y0016395D01*
X0041408Y0016535D01*
X0041486Y0016672D01*
X0041568Y0016808D01*
X0041652Y0016942D01*
X0041741Y0017073D01*
X0041832Y0017202D01*
X0041927Y0017329D01*
X0042024Y0017454D01*
X0042125Y0017576D01*
X0042229Y0017695D01*
X0042336Y0017812D01*
X0042446Y0017926D01*
X0042559Y0018037D01*
X0042674Y0018146D01*
X0042792Y0018251D01*
X0042913Y0018353D01*
X0043036Y0018453D01*
X0043162Y0018549D01*
X0043290Y0018642D01*
X0043420Y0018732D01*
X0043553Y0018818D01*
X0043688Y0018902D01*
X0043824Y0018981D01*
X0043963Y0019058D01*
X0044104Y0019130D01*
X0044246Y0019200D01*
X0044390Y0019265D01*
X0044536Y0019327D01*
X0044683Y0019385D01*
X0044832Y0019440D01*
X0044982Y0019491D01*
X0045133Y0019538D01*
X0045285Y0019581D01*
X0045438Y0019620D01*
X0045593Y0019656D01*
X0045748Y0019687D01*
X0045904Y0019715D01*
X0046060Y0019739D01*
X0046217Y0019759D01*
X0046375Y0019775D01*
X0046532Y0019787D01*
X0046691Y0019795D01*
X0046849Y0019799D01*
X0047007Y0019799D01*
X0047165Y0019795D01*
X0047324Y0019787D01*
X0047481Y0019775D01*
X0047639Y0019759D01*
X0047796Y0019739D01*
X0047952Y0019715D01*
X0048108Y0019687D01*
X0048263Y0019656D01*
X0048418Y0019620D01*
X0048571Y0019581D01*
X0048723Y0019538D01*
X0048874Y0019491D01*
X0049024Y0019440D01*
X0049173Y0019385D01*
X0049320Y0019327D01*
X0049466Y0019265D01*
X0049610Y0019200D01*
X0049752Y0019130D01*
X0049893Y0019058D01*
X0050032Y0018981D01*
X0050168Y0018902D01*
X0050303Y0018818D01*
X0050436Y0018732D01*
X0050566Y0018642D01*
X0050694Y0018549D01*
X0050820Y0018453D01*
X0050943Y0018353D01*
X0051064Y0018251D01*
X0051182Y0018146D01*
X0051297Y0018037D01*
X0051410Y0017926D01*
X0051520Y0017812D01*
X0051627Y0017695D01*
X0051731Y0017576D01*
X0051832Y0017454D01*
X0051929Y0017329D01*
X0052024Y0017202D01*
X0052115Y0017073D01*
X0052204Y0016942D01*
X0052288Y0016808D01*
X0052370Y0016672D01*
X0052448Y0016535D01*
X0052522Y0016395D01*
X0052593Y0016253D01*
X0052661Y0016110D01*
X0052725Y0015965D01*
X0052785Y0015819D01*
X0052841Y0015671D01*
X0052894Y0015522D01*
X0052943Y0015371D01*
X0052988Y0015219D01*
X0053029Y0015066D01*
X0053067Y0014913D01*
X0053100Y0014758D01*
X0053130Y0014602D01*
X0053156Y0014446D01*
X0053177Y0014289D01*
X0053195Y0014132D01*
X0053209Y0013974D01*
X0053219Y0013816D01*
X0053225Y0013658D01*
X0053227Y0013500D01*
X0053225Y0013342D01*
X0053219Y0013184D01*
X0053209Y0013026D01*
X0053195Y0012868D01*
X0053177Y0012711D01*
X0053156Y0012554D01*
X0053130Y0012398D01*
X0053100Y0012242D01*
X0053067Y0012087D01*
X0053029Y0011934D01*
X0052988Y0011781D01*
X0052943Y0011629D01*
X0052894Y0011478D01*
X0052841Y0011329D01*
X0052785Y0011181D01*
X0052725Y0011035D01*
X0052661Y0010890D01*
X0052593Y0010747D01*
X0052522Y0010605D01*
X0052448Y0010465D01*
X0052370Y0010328D01*
X0052288Y0010192D01*
X0052204Y0010058D01*
X0052115Y0009927D01*
X0052024Y0009798D01*
X0051929Y0009671D01*
X0051832Y0009546D01*
X0051731Y0009424D01*
X0051627Y0009305D01*
X0051520Y0009188D01*
X0051410Y0009074D01*
X0051297Y0008963D01*
X0051182Y0008854D01*
X0051064Y0008749D01*
X0050943Y0008647D01*
X0050820Y0008547D01*
X0050694Y0008451D01*
X0050566Y0008358D01*
X0050436Y0008268D01*
X0050303Y0008182D01*
X0050168Y0008098D01*
X0050032Y0008019D01*
X0049893Y0007942D01*
X0049752Y0007870D01*
X0049610Y0007800D01*
X0049466Y0007735D01*
X0049320Y0007673D01*
X0049173Y0007615D01*
X0049024Y0007560D01*
X0048874Y0007509D01*
X0048723Y0007462D01*
X0048571Y0007419D01*
X0048418Y0007380D01*
X0048263Y0007344D01*
X0048108Y0007313D01*
X0047952Y0007285D01*
X0047796Y0007261D01*
X0047639Y0007241D01*
X0047481Y0007225D01*
X0047324Y0007213D01*
X0047165Y0007205D01*
X0047007Y0007201D01*
X0046849Y0007201D01*
X0046691Y0007205D01*
X0046532Y0007213D01*
X0046375Y0007225D01*
X0046217Y0007241D01*
X0046060Y0007261D01*
X0045904Y0007285D01*
X0045748Y0007313D01*
X0045593Y0007344D01*
X0045438Y0007380D01*
X0045285Y0007419D01*
X0045133Y0007462D01*
X0044982Y0007509D01*
X0044832Y0007560D01*
X0044683Y0007615D01*
X0044536Y0007673D01*
X0044390Y0007735D01*
X0044246Y0007800D01*
X0044104Y0007870D01*
X0043963Y0007942D01*
X0043824Y0008019D01*
X0043688Y0008098D01*
X0043553Y0008182D01*
X0043420Y0008268D01*
X0043290Y0008358D01*
X0043162Y0008451D01*
X0043036Y0008547D01*
X0042913Y0008647D01*
X0042792Y0008749D01*
X0042674Y0008854D01*
X0042559Y0008963D01*
X0042446Y0009074D01*
X0042336Y0009188D01*
X0042229Y0009305D01*
X0042125Y0009424D01*
X0042024Y0009546D01*
X0041927Y0009671D01*
X0041832Y0009798D01*
X0041741Y0009927D01*
X0041652Y0010058D01*
X0041568Y0010192D01*
X0041486Y0010328D01*
X0041408Y0010465D01*
X0041334Y0010605D01*
X0041263Y0010747D01*
X0041195Y0010890D01*
X0041131Y0011035D01*
X0041071Y0011181D01*
X0041015Y0011329D01*
X0040962Y0011478D01*
X0040913Y0011629D01*
X0040868Y0011781D01*
X0040827Y0011934D01*
X0040789Y0012087D01*
X0040756Y0012242D01*
X0040726Y0012398D01*
X0040700Y0012554D01*
X0040679Y0012711D01*
X0040661Y0012868D01*
X0040647Y0013026D01*
X0040637Y0013184D01*
X0040631Y0013342D01*
X0040629Y0013500D01*
X0155629Y0013500D02*
X0155631Y0013658D01*
X0155637Y0013816D01*
X0155647Y0013974D01*
X0155661Y0014132D01*
X0155679Y0014289D01*
X0155700Y0014446D01*
X0155726Y0014602D01*
X0155756Y0014758D01*
X0155789Y0014913D01*
X0155827Y0015066D01*
X0155868Y0015219D01*
X0155913Y0015371D01*
X0155962Y0015522D01*
X0156015Y0015671D01*
X0156071Y0015819D01*
X0156131Y0015965D01*
X0156195Y0016110D01*
X0156263Y0016253D01*
X0156334Y0016395D01*
X0156408Y0016535D01*
X0156486Y0016672D01*
X0156568Y0016808D01*
X0156652Y0016942D01*
X0156741Y0017073D01*
X0156832Y0017202D01*
X0156927Y0017329D01*
X0157024Y0017454D01*
X0157125Y0017576D01*
X0157229Y0017695D01*
X0157336Y0017812D01*
X0157446Y0017926D01*
X0157559Y0018037D01*
X0157674Y0018146D01*
X0157792Y0018251D01*
X0157913Y0018353D01*
X0158036Y0018453D01*
X0158162Y0018549D01*
X0158290Y0018642D01*
X0158420Y0018732D01*
X0158553Y0018818D01*
X0158688Y0018902D01*
X0158824Y0018981D01*
X0158963Y0019058D01*
X0159104Y0019130D01*
X0159246Y0019200D01*
X0159390Y0019265D01*
X0159536Y0019327D01*
X0159683Y0019385D01*
X0159832Y0019440D01*
X0159982Y0019491D01*
X0160133Y0019538D01*
X0160285Y0019581D01*
X0160438Y0019620D01*
X0160593Y0019656D01*
X0160748Y0019687D01*
X0160904Y0019715D01*
X0161060Y0019739D01*
X0161217Y0019759D01*
X0161375Y0019775D01*
X0161532Y0019787D01*
X0161691Y0019795D01*
X0161849Y0019799D01*
X0162007Y0019799D01*
X0162165Y0019795D01*
X0162324Y0019787D01*
X0162481Y0019775D01*
X0162639Y0019759D01*
X0162796Y0019739D01*
X0162952Y0019715D01*
X0163108Y0019687D01*
X0163263Y0019656D01*
X0163418Y0019620D01*
X0163571Y0019581D01*
X0163723Y0019538D01*
X0163874Y0019491D01*
X0164024Y0019440D01*
X0164173Y0019385D01*
X0164320Y0019327D01*
X0164466Y0019265D01*
X0164610Y0019200D01*
X0164752Y0019130D01*
X0164893Y0019058D01*
X0165032Y0018981D01*
X0165168Y0018902D01*
X0165303Y0018818D01*
X0165436Y0018732D01*
X0165566Y0018642D01*
X0165694Y0018549D01*
X0165820Y0018453D01*
X0165943Y0018353D01*
X0166064Y0018251D01*
X0166182Y0018146D01*
X0166297Y0018037D01*
X0166410Y0017926D01*
X0166520Y0017812D01*
X0166627Y0017695D01*
X0166731Y0017576D01*
X0166832Y0017454D01*
X0166929Y0017329D01*
X0167024Y0017202D01*
X0167115Y0017073D01*
X0167204Y0016942D01*
X0167288Y0016808D01*
X0167370Y0016672D01*
X0167448Y0016535D01*
X0167522Y0016395D01*
X0167593Y0016253D01*
X0167661Y0016110D01*
X0167725Y0015965D01*
X0167785Y0015819D01*
X0167841Y0015671D01*
X0167894Y0015522D01*
X0167943Y0015371D01*
X0167988Y0015219D01*
X0168029Y0015066D01*
X0168067Y0014913D01*
X0168100Y0014758D01*
X0168130Y0014602D01*
X0168156Y0014446D01*
X0168177Y0014289D01*
X0168195Y0014132D01*
X0168209Y0013974D01*
X0168219Y0013816D01*
X0168225Y0013658D01*
X0168227Y0013500D01*
X0168225Y0013342D01*
X0168219Y0013184D01*
X0168209Y0013026D01*
X0168195Y0012868D01*
X0168177Y0012711D01*
X0168156Y0012554D01*
X0168130Y0012398D01*
X0168100Y0012242D01*
X0168067Y0012087D01*
X0168029Y0011934D01*
X0167988Y0011781D01*
X0167943Y0011629D01*
X0167894Y0011478D01*
X0167841Y0011329D01*
X0167785Y0011181D01*
X0167725Y0011035D01*
X0167661Y0010890D01*
X0167593Y0010747D01*
X0167522Y0010605D01*
X0167448Y0010465D01*
X0167370Y0010328D01*
X0167288Y0010192D01*
X0167204Y0010058D01*
X0167115Y0009927D01*
X0167024Y0009798D01*
X0166929Y0009671D01*
X0166832Y0009546D01*
X0166731Y0009424D01*
X0166627Y0009305D01*
X0166520Y0009188D01*
X0166410Y0009074D01*
X0166297Y0008963D01*
X0166182Y0008854D01*
X0166064Y0008749D01*
X0165943Y0008647D01*
X0165820Y0008547D01*
X0165694Y0008451D01*
X0165566Y0008358D01*
X0165436Y0008268D01*
X0165303Y0008182D01*
X0165168Y0008098D01*
X0165032Y0008019D01*
X0164893Y0007942D01*
X0164752Y0007870D01*
X0164610Y0007800D01*
X0164466Y0007735D01*
X0164320Y0007673D01*
X0164173Y0007615D01*
X0164024Y0007560D01*
X0163874Y0007509D01*
X0163723Y0007462D01*
X0163571Y0007419D01*
X0163418Y0007380D01*
X0163263Y0007344D01*
X0163108Y0007313D01*
X0162952Y0007285D01*
X0162796Y0007261D01*
X0162639Y0007241D01*
X0162481Y0007225D01*
X0162324Y0007213D01*
X0162165Y0007205D01*
X0162007Y0007201D01*
X0161849Y0007201D01*
X0161691Y0007205D01*
X0161532Y0007213D01*
X0161375Y0007225D01*
X0161217Y0007241D01*
X0161060Y0007261D01*
X0160904Y0007285D01*
X0160748Y0007313D01*
X0160593Y0007344D01*
X0160438Y0007380D01*
X0160285Y0007419D01*
X0160133Y0007462D01*
X0159982Y0007509D01*
X0159832Y0007560D01*
X0159683Y0007615D01*
X0159536Y0007673D01*
X0159390Y0007735D01*
X0159246Y0007800D01*
X0159104Y0007870D01*
X0158963Y0007942D01*
X0158824Y0008019D01*
X0158688Y0008098D01*
X0158553Y0008182D01*
X0158420Y0008268D01*
X0158290Y0008358D01*
X0158162Y0008451D01*
X0158036Y0008547D01*
X0157913Y0008647D01*
X0157792Y0008749D01*
X0157674Y0008854D01*
X0157559Y0008963D01*
X0157446Y0009074D01*
X0157336Y0009188D01*
X0157229Y0009305D01*
X0157125Y0009424D01*
X0157024Y0009546D01*
X0156927Y0009671D01*
X0156832Y0009798D01*
X0156741Y0009927D01*
X0156652Y0010058D01*
X0156568Y0010192D01*
X0156486Y0010328D01*
X0156408Y0010465D01*
X0156334Y0010605D01*
X0156263Y0010747D01*
X0156195Y0010890D01*
X0156131Y0011035D01*
X0156071Y0011181D01*
X0156015Y0011329D01*
X0155962Y0011478D01*
X0155913Y0011629D01*
X0155868Y0011781D01*
X0155827Y0011934D01*
X0155789Y0012087D01*
X0155756Y0012242D01*
X0155726Y0012398D01*
X0155700Y0012554D01*
X0155679Y0012711D01*
X0155661Y0012868D01*
X0155647Y0013026D01*
X0155637Y0013184D01*
X0155631Y0013342D01*
X0155629Y0013500D01*
X0159802Y0033500D02*
X0159804Y0033565D01*
X0159810Y0033631D01*
X0159820Y0033695D01*
X0159833Y0033759D01*
X0159851Y0033822D01*
X0159872Y0033884D01*
X0159897Y0033944D01*
X0159926Y0034003D01*
X0159958Y0034060D01*
X0159994Y0034115D01*
X0160032Y0034168D01*
X0160074Y0034218D01*
X0160119Y0034266D01*
X0160167Y0034311D01*
X0160217Y0034353D01*
X0160270Y0034391D01*
X0160325Y0034427D01*
X0160382Y0034459D01*
X0160441Y0034488D01*
X0160501Y0034513D01*
X0160563Y0034534D01*
X0160626Y0034552D01*
X0160690Y0034565D01*
X0160754Y0034575D01*
X0160820Y0034581D01*
X0160885Y0034583D01*
X0160950Y0034581D01*
X0161016Y0034575D01*
X0161080Y0034565D01*
X0161144Y0034552D01*
X0161207Y0034534D01*
X0161269Y0034513D01*
X0161329Y0034488D01*
X0161388Y0034459D01*
X0161445Y0034427D01*
X0161500Y0034391D01*
X0161553Y0034353D01*
X0161603Y0034311D01*
X0161651Y0034266D01*
X0161696Y0034218D01*
X0161738Y0034168D01*
X0161776Y0034115D01*
X0161812Y0034060D01*
X0161844Y0034003D01*
X0161873Y0033944D01*
X0161898Y0033884D01*
X0161919Y0033822D01*
X0161937Y0033759D01*
X0161950Y0033695D01*
X0161960Y0033631D01*
X0161966Y0033565D01*
X0161968Y0033500D01*
X0161966Y0033435D01*
X0161960Y0033369D01*
X0161950Y0033305D01*
X0161937Y0033241D01*
X0161919Y0033178D01*
X0161898Y0033116D01*
X0161873Y0033056D01*
X0161844Y0032997D01*
X0161812Y0032940D01*
X0161776Y0032885D01*
X0161738Y0032832D01*
X0161696Y0032782D01*
X0161651Y0032734D01*
X0161603Y0032689D01*
X0161553Y0032647D01*
X0161500Y0032609D01*
X0161445Y0032573D01*
X0161388Y0032541D01*
X0161329Y0032512D01*
X0161269Y0032487D01*
X0161207Y0032466D01*
X0161144Y0032448D01*
X0161080Y0032435D01*
X0161016Y0032425D01*
X0160950Y0032419D01*
X0160885Y0032417D01*
X0160820Y0032419D01*
X0160754Y0032425D01*
X0160690Y0032435D01*
X0160626Y0032448D01*
X0160563Y0032466D01*
X0160501Y0032487D01*
X0160441Y0032512D01*
X0160382Y0032541D01*
X0160325Y0032573D01*
X0160270Y0032609D01*
X0160217Y0032647D01*
X0160167Y0032689D01*
X0160119Y0032734D01*
X0160074Y0032782D01*
X0160032Y0032832D01*
X0159994Y0032885D01*
X0159958Y0032940D01*
X0159926Y0032997D01*
X0159897Y0033056D01*
X0159872Y0033116D01*
X0159851Y0033178D01*
X0159833Y0033241D01*
X0159820Y0033305D01*
X0159810Y0033369D01*
X0159804Y0033435D01*
X0159802Y0033500D01*
X0166889Y0033500D02*
X0166891Y0033565D01*
X0166897Y0033631D01*
X0166907Y0033695D01*
X0166920Y0033759D01*
X0166938Y0033822D01*
X0166959Y0033884D01*
X0166984Y0033944D01*
X0167013Y0034003D01*
X0167045Y0034060D01*
X0167081Y0034115D01*
X0167119Y0034168D01*
X0167161Y0034218D01*
X0167206Y0034266D01*
X0167254Y0034311D01*
X0167304Y0034353D01*
X0167357Y0034391D01*
X0167412Y0034427D01*
X0167469Y0034459D01*
X0167528Y0034488D01*
X0167588Y0034513D01*
X0167650Y0034534D01*
X0167713Y0034552D01*
X0167777Y0034565D01*
X0167841Y0034575D01*
X0167907Y0034581D01*
X0167972Y0034583D01*
X0168037Y0034581D01*
X0168103Y0034575D01*
X0168167Y0034565D01*
X0168231Y0034552D01*
X0168294Y0034534D01*
X0168356Y0034513D01*
X0168416Y0034488D01*
X0168475Y0034459D01*
X0168532Y0034427D01*
X0168587Y0034391D01*
X0168640Y0034353D01*
X0168690Y0034311D01*
X0168738Y0034266D01*
X0168783Y0034218D01*
X0168825Y0034168D01*
X0168863Y0034115D01*
X0168899Y0034060D01*
X0168931Y0034003D01*
X0168960Y0033944D01*
X0168985Y0033884D01*
X0169006Y0033822D01*
X0169024Y0033759D01*
X0169037Y0033695D01*
X0169047Y0033631D01*
X0169053Y0033565D01*
X0169055Y0033500D01*
X0169053Y0033435D01*
X0169047Y0033369D01*
X0169037Y0033305D01*
X0169024Y0033241D01*
X0169006Y0033178D01*
X0168985Y0033116D01*
X0168960Y0033056D01*
X0168931Y0032997D01*
X0168899Y0032940D01*
X0168863Y0032885D01*
X0168825Y0032832D01*
X0168783Y0032782D01*
X0168738Y0032734D01*
X0168690Y0032689D01*
X0168640Y0032647D01*
X0168587Y0032609D01*
X0168532Y0032573D01*
X0168475Y0032541D01*
X0168416Y0032512D01*
X0168356Y0032487D01*
X0168294Y0032466D01*
X0168231Y0032448D01*
X0168167Y0032435D01*
X0168103Y0032425D01*
X0168037Y0032419D01*
X0167972Y0032417D01*
X0167907Y0032419D01*
X0167841Y0032425D01*
X0167777Y0032435D01*
X0167713Y0032448D01*
X0167650Y0032466D01*
X0167588Y0032487D01*
X0167528Y0032512D01*
X0167469Y0032541D01*
X0167412Y0032573D01*
X0167357Y0032609D01*
X0167304Y0032647D01*
X0167254Y0032689D01*
X0167206Y0032734D01*
X0167161Y0032782D01*
X0167119Y0032832D01*
X0167081Y0032885D01*
X0167045Y0032940D01*
X0167013Y0032997D01*
X0166984Y0033056D01*
X0166959Y0033116D01*
X0166938Y0033178D01*
X0166920Y0033241D01*
X0166907Y0033305D01*
X0166897Y0033369D01*
X0166891Y0033435D01*
X0166889Y0033500D01*
X0155629Y0128500D02*
X0155631Y0128658D01*
X0155637Y0128816D01*
X0155647Y0128974D01*
X0155661Y0129132D01*
X0155679Y0129289D01*
X0155700Y0129446D01*
X0155726Y0129602D01*
X0155756Y0129758D01*
X0155789Y0129913D01*
X0155827Y0130066D01*
X0155868Y0130219D01*
X0155913Y0130371D01*
X0155962Y0130522D01*
X0156015Y0130671D01*
X0156071Y0130819D01*
X0156131Y0130965D01*
X0156195Y0131110D01*
X0156263Y0131253D01*
X0156334Y0131395D01*
X0156408Y0131535D01*
X0156486Y0131672D01*
X0156568Y0131808D01*
X0156652Y0131942D01*
X0156741Y0132073D01*
X0156832Y0132202D01*
X0156927Y0132329D01*
X0157024Y0132454D01*
X0157125Y0132576D01*
X0157229Y0132695D01*
X0157336Y0132812D01*
X0157446Y0132926D01*
X0157559Y0133037D01*
X0157674Y0133146D01*
X0157792Y0133251D01*
X0157913Y0133353D01*
X0158036Y0133453D01*
X0158162Y0133549D01*
X0158290Y0133642D01*
X0158420Y0133732D01*
X0158553Y0133818D01*
X0158688Y0133902D01*
X0158824Y0133981D01*
X0158963Y0134058D01*
X0159104Y0134130D01*
X0159246Y0134200D01*
X0159390Y0134265D01*
X0159536Y0134327D01*
X0159683Y0134385D01*
X0159832Y0134440D01*
X0159982Y0134491D01*
X0160133Y0134538D01*
X0160285Y0134581D01*
X0160438Y0134620D01*
X0160593Y0134656D01*
X0160748Y0134687D01*
X0160904Y0134715D01*
X0161060Y0134739D01*
X0161217Y0134759D01*
X0161375Y0134775D01*
X0161532Y0134787D01*
X0161691Y0134795D01*
X0161849Y0134799D01*
X0162007Y0134799D01*
X0162165Y0134795D01*
X0162324Y0134787D01*
X0162481Y0134775D01*
X0162639Y0134759D01*
X0162796Y0134739D01*
X0162952Y0134715D01*
X0163108Y0134687D01*
X0163263Y0134656D01*
X0163418Y0134620D01*
X0163571Y0134581D01*
X0163723Y0134538D01*
X0163874Y0134491D01*
X0164024Y0134440D01*
X0164173Y0134385D01*
X0164320Y0134327D01*
X0164466Y0134265D01*
X0164610Y0134200D01*
X0164752Y0134130D01*
X0164893Y0134058D01*
X0165032Y0133981D01*
X0165168Y0133902D01*
X0165303Y0133818D01*
X0165436Y0133732D01*
X0165566Y0133642D01*
X0165694Y0133549D01*
X0165820Y0133453D01*
X0165943Y0133353D01*
X0166064Y0133251D01*
X0166182Y0133146D01*
X0166297Y0133037D01*
X0166410Y0132926D01*
X0166520Y0132812D01*
X0166627Y0132695D01*
X0166731Y0132576D01*
X0166832Y0132454D01*
X0166929Y0132329D01*
X0167024Y0132202D01*
X0167115Y0132073D01*
X0167204Y0131942D01*
X0167288Y0131808D01*
X0167370Y0131672D01*
X0167448Y0131535D01*
X0167522Y0131395D01*
X0167593Y0131253D01*
X0167661Y0131110D01*
X0167725Y0130965D01*
X0167785Y0130819D01*
X0167841Y0130671D01*
X0167894Y0130522D01*
X0167943Y0130371D01*
X0167988Y0130219D01*
X0168029Y0130066D01*
X0168067Y0129913D01*
X0168100Y0129758D01*
X0168130Y0129602D01*
X0168156Y0129446D01*
X0168177Y0129289D01*
X0168195Y0129132D01*
X0168209Y0128974D01*
X0168219Y0128816D01*
X0168225Y0128658D01*
X0168227Y0128500D01*
X0168225Y0128342D01*
X0168219Y0128184D01*
X0168209Y0128026D01*
X0168195Y0127868D01*
X0168177Y0127711D01*
X0168156Y0127554D01*
X0168130Y0127398D01*
X0168100Y0127242D01*
X0168067Y0127087D01*
X0168029Y0126934D01*
X0167988Y0126781D01*
X0167943Y0126629D01*
X0167894Y0126478D01*
X0167841Y0126329D01*
X0167785Y0126181D01*
X0167725Y0126035D01*
X0167661Y0125890D01*
X0167593Y0125747D01*
X0167522Y0125605D01*
X0167448Y0125465D01*
X0167370Y0125328D01*
X0167288Y0125192D01*
X0167204Y0125058D01*
X0167115Y0124927D01*
X0167024Y0124798D01*
X0166929Y0124671D01*
X0166832Y0124546D01*
X0166731Y0124424D01*
X0166627Y0124305D01*
X0166520Y0124188D01*
X0166410Y0124074D01*
X0166297Y0123963D01*
X0166182Y0123854D01*
X0166064Y0123749D01*
X0165943Y0123647D01*
X0165820Y0123547D01*
X0165694Y0123451D01*
X0165566Y0123358D01*
X0165436Y0123268D01*
X0165303Y0123182D01*
X0165168Y0123098D01*
X0165032Y0123019D01*
X0164893Y0122942D01*
X0164752Y0122870D01*
X0164610Y0122800D01*
X0164466Y0122735D01*
X0164320Y0122673D01*
X0164173Y0122615D01*
X0164024Y0122560D01*
X0163874Y0122509D01*
X0163723Y0122462D01*
X0163571Y0122419D01*
X0163418Y0122380D01*
X0163263Y0122344D01*
X0163108Y0122313D01*
X0162952Y0122285D01*
X0162796Y0122261D01*
X0162639Y0122241D01*
X0162481Y0122225D01*
X0162324Y0122213D01*
X0162165Y0122205D01*
X0162007Y0122201D01*
X0161849Y0122201D01*
X0161691Y0122205D01*
X0161532Y0122213D01*
X0161375Y0122225D01*
X0161217Y0122241D01*
X0161060Y0122261D01*
X0160904Y0122285D01*
X0160748Y0122313D01*
X0160593Y0122344D01*
X0160438Y0122380D01*
X0160285Y0122419D01*
X0160133Y0122462D01*
X0159982Y0122509D01*
X0159832Y0122560D01*
X0159683Y0122615D01*
X0159536Y0122673D01*
X0159390Y0122735D01*
X0159246Y0122800D01*
X0159104Y0122870D01*
X0158963Y0122942D01*
X0158824Y0123019D01*
X0158688Y0123098D01*
X0158553Y0123182D01*
X0158420Y0123268D01*
X0158290Y0123358D01*
X0158162Y0123451D01*
X0158036Y0123547D01*
X0157913Y0123647D01*
X0157792Y0123749D01*
X0157674Y0123854D01*
X0157559Y0123963D01*
X0157446Y0124074D01*
X0157336Y0124188D01*
X0157229Y0124305D01*
X0157125Y0124424D01*
X0157024Y0124546D01*
X0156927Y0124671D01*
X0156832Y0124798D01*
X0156741Y0124927D01*
X0156652Y0125058D01*
X0156568Y0125192D01*
X0156486Y0125328D01*
X0156408Y0125465D01*
X0156334Y0125605D01*
X0156263Y0125747D01*
X0156195Y0125890D01*
X0156131Y0126035D01*
X0156071Y0126181D01*
X0156015Y0126329D01*
X0155962Y0126478D01*
X0155913Y0126629D01*
X0155868Y0126781D01*
X0155827Y0126934D01*
X0155789Y0127087D01*
X0155756Y0127242D01*
X0155726Y0127398D01*
X0155700Y0127554D01*
X0155679Y0127711D01*
X0155661Y0127868D01*
X0155647Y0128026D01*
X0155637Y0128184D01*
X0155631Y0128342D01*
X0155629Y0128500D01*
X0040629Y0128500D02*
X0040631Y0128658D01*
X0040637Y0128816D01*
X0040647Y0128974D01*
X0040661Y0129132D01*
X0040679Y0129289D01*
X0040700Y0129446D01*
X0040726Y0129602D01*
X0040756Y0129758D01*
X0040789Y0129913D01*
X0040827Y0130066D01*
X0040868Y0130219D01*
X0040913Y0130371D01*
X0040962Y0130522D01*
X0041015Y0130671D01*
X0041071Y0130819D01*
X0041131Y0130965D01*
X0041195Y0131110D01*
X0041263Y0131253D01*
X0041334Y0131395D01*
X0041408Y0131535D01*
X0041486Y0131672D01*
X0041568Y0131808D01*
X0041652Y0131942D01*
X0041741Y0132073D01*
X0041832Y0132202D01*
X0041927Y0132329D01*
X0042024Y0132454D01*
X0042125Y0132576D01*
X0042229Y0132695D01*
X0042336Y0132812D01*
X0042446Y0132926D01*
X0042559Y0133037D01*
X0042674Y0133146D01*
X0042792Y0133251D01*
X0042913Y0133353D01*
X0043036Y0133453D01*
X0043162Y0133549D01*
X0043290Y0133642D01*
X0043420Y0133732D01*
X0043553Y0133818D01*
X0043688Y0133902D01*
X0043824Y0133981D01*
X0043963Y0134058D01*
X0044104Y0134130D01*
X0044246Y0134200D01*
X0044390Y0134265D01*
X0044536Y0134327D01*
X0044683Y0134385D01*
X0044832Y0134440D01*
X0044982Y0134491D01*
X0045133Y0134538D01*
X0045285Y0134581D01*
X0045438Y0134620D01*
X0045593Y0134656D01*
X0045748Y0134687D01*
X0045904Y0134715D01*
X0046060Y0134739D01*
X0046217Y0134759D01*
X0046375Y0134775D01*
X0046532Y0134787D01*
X0046691Y0134795D01*
X0046849Y0134799D01*
X0047007Y0134799D01*
X0047165Y0134795D01*
X0047324Y0134787D01*
X0047481Y0134775D01*
X0047639Y0134759D01*
X0047796Y0134739D01*
X0047952Y0134715D01*
X0048108Y0134687D01*
X0048263Y0134656D01*
X0048418Y0134620D01*
X0048571Y0134581D01*
X0048723Y0134538D01*
X0048874Y0134491D01*
X0049024Y0134440D01*
X0049173Y0134385D01*
X0049320Y0134327D01*
X0049466Y0134265D01*
X0049610Y0134200D01*
X0049752Y0134130D01*
X0049893Y0134058D01*
X0050032Y0133981D01*
X0050168Y0133902D01*
X0050303Y0133818D01*
X0050436Y0133732D01*
X0050566Y0133642D01*
X0050694Y0133549D01*
X0050820Y0133453D01*
X0050943Y0133353D01*
X0051064Y0133251D01*
X0051182Y0133146D01*
X0051297Y0133037D01*
X0051410Y0132926D01*
X0051520Y0132812D01*
X0051627Y0132695D01*
X0051731Y0132576D01*
X0051832Y0132454D01*
X0051929Y0132329D01*
X0052024Y0132202D01*
X0052115Y0132073D01*
X0052204Y0131942D01*
X0052288Y0131808D01*
X0052370Y0131672D01*
X0052448Y0131535D01*
X0052522Y0131395D01*
X0052593Y0131253D01*
X0052661Y0131110D01*
X0052725Y0130965D01*
X0052785Y0130819D01*
X0052841Y0130671D01*
X0052894Y0130522D01*
X0052943Y0130371D01*
X0052988Y0130219D01*
X0053029Y0130066D01*
X0053067Y0129913D01*
X0053100Y0129758D01*
X0053130Y0129602D01*
X0053156Y0129446D01*
X0053177Y0129289D01*
X0053195Y0129132D01*
X0053209Y0128974D01*
X0053219Y0128816D01*
X0053225Y0128658D01*
X0053227Y0128500D01*
X0053225Y0128342D01*
X0053219Y0128184D01*
X0053209Y0128026D01*
X0053195Y0127868D01*
X0053177Y0127711D01*
X0053156Y0127554D01*
X0053130Y0127398D01*
X0053100Y0127242D01*
X0053067Y0127087D01*
X0053029Y0126934D01*
X0052988Y0126781D01*
X0052943Y0126629D01*
X0052894Y0126478D01*
X0052841Y0126329D01*
X0052785Y0126181D01*
X0052725Y0126035D01*
X0052661Y0125890D01*
X0052593Y0125747D01*
X0052522Y0125605D01*
X0052448Y0125465D01*
X0052370Y0125328D01*
X0052288Y0125192D01*
X0052204Y0125058D01*
X0052115Y0124927D01*
X0052024Y0124798D01*
X0051929Y0124671D01*
X0051832Y0124546D01*
X0051731Y0124424D01*
X0051627Y0124305D01*
X0051520Y0124188D01*
X0051410Y0124074D01*
X0051297Y0123963D01*
X0051182Y0123854D01*
X0051064Y0123749D01*
X0050943Y0123647D01*
X0050820Y0123547D01*
X0050694Y0123451D01*
X0050566Y0123358D01*
X0050436Y0123268D01*
X0050303Y0123182D01*
X0050168Y0123098D01*
X0050032Y0123019D01*
X0049893Y0122942D01*
X0049752Y0122870D01*
X0049610Y0122800D01*
X0049466Y0122735D01*
X0049320Y0122673D01*
X0049173Y0122615D01*
X0049024Y0122560D01*
X0048874Y0122509D01*
X0048723Y0122462D01*
X0048571Y0122419D01*
X0048418Y0122380D01*
X0048263Y0122344D01*
X0048108Y0122313D01*
X0047952Y0122285D01*
X0047796Y0122261D01*
X0047639Y0122241D01*
X0047481Y0122225D01*
X0047324Y0122213D01*
X0047165Y0122205D01*
X0047007Y0122201D01*
X0046849Y0122201D01*
X0046691Y0122205D01*
X0046532Y0122213D01*
X0046375Y0122225D01*
X0046217Y0122241D01*
X0046060Y0122261D01*
X0045904Y0122285D01*
X0045748Y0122313D01*
X0045593Y0122344D01*
X0045438Y0122380D01*
X0045285Y0122419D01*
X0045133Y0122462D01*
X0044982Y0122509D01*
X0044832Y0122560D01*
X0044683Y0122615D01*
X0044536Y0122673D01*
X0044390Y0122735D01*
X0044246Y0122800D01*
X0044104Y0122870D01*
X0043963Y0122942D01*
X0043824Y0123019D01*
X0043688Y0123098D01*
X0043553Y0123182D01*
X0043420Y0123268D01*
X0043290Y0123358D01*
X0043162Y0123451D01*
X0043036Y0123547D01*
X0042913Y0123647D01*
X0042792Y0123749D01*
X0042674Y0123854D01*
X0042559Y0123963D01*
X0042446Y0124074D01*
X0042336Y0124188D01*
X0042229Y0124305D01*
X0042125Y0124424D01*
X0042024Y0124546D01*
X0041927Y0124671D01*
X0041832Y0124798D01*
X0041741Y0124927D01*
X0041652Y0125058D01*
X0041568Y0125192D01*
X0041486Y0125328D01*
X0041408Y0125465D01*
X0041334Y0125605D01*
X0041263Y0125747D01*
X0041195Y0125890D01*
X0041131Y0126035D01*
X0041071Y0126181D01*
X0041015Y0126329D01*
X0040962Y0126478D01*
X0040913Y0126629D01*
X0040868Y0126781D01*
X0040827Y0126934D01*
X0040789Y0127087D01*
X0040756Y0127242D01*
X0040726Y0127398D01*
X0040700Y0127554D01*
X0040679Y0127711D01*
X0040661Y0127868D01*
X0040647Y0128026D01*
X0040637Y0128184D01*
X0040631Y0128342D01*
X0040629Y0128500D01*
D11*
X0036928Y0130594D02*
X0036928Y0011406D01*
X0036930Y0011215D01*
X0036937Y0011024D01*
X0036949Y0010833D01*
X0036965Y0010643D01*
X0036986Y0010453D01*
X0037011Y0010264D01*
X0037041Y0010075D01*
X0037075Y0009887D01*
X0037114Y0009700D01*
X0037158Y0009514D01*
X0037206Y0009329D01*
X0037258Y0009145D01*
X0037315Y0008963D01*
X0037376Y0008782D01*
X0037442Y0008602D01*
X0037512Y0008425D01*
X0037586Y0008249D01*
X0037664Y0008074D01*
X0037747Y0007902D01*
X0037834Y0007732D01*
X0037924Y0007564D01*
X0038019Y0007398D01*
X0038118Y0007234D01*
X0038221Y0007073D01*
X0038327Y0006915D01*
X0038438Y0006759D01*
X0038552Y0006606D01*
X0038670Y0006455D01*
X0038791Y0006308D01*
X0038916Y0006163D01*
X0039045Y0006022D01*
X0039176Y0005884D01*
X0039312Y0005748D01*
X0039450Y0005617D01*
X0039591Y0005488D01*
X0039736Y0005363D01*
X0039883Y0005242D01*
X0040034Y0005124D01*
X0040187Y0005010D01*
X0040343Y0004899D01*
X0040501Y0004793D01*
X0040662Y0004690D01*
X0040826Y0004591D01*
X0040992Y0004496D01*
X0041160Y0004406D01*
X0041330Y0004319D01*
X0041502Y0004236D01*
X0041677Y0004158D01*
X0041853Y0004084D01*
X0042030Y0004014D01*
X0042210Y0003948D01*
X0042391Y0003887D01*
X0042573Y0003830D01*
X0042757Y0003778D01*
X0042942Y0003730D01*
X0043128Y0003686D01*
X0043315Y0003647D01*
X0043503Y0003613D01*
X0043692Y0003583D01*
X0043881Y0003558D01*
X0044071Y0003537D01*
X0044261Y0003521D01*
X0044452Y0003509D01*
X0044643Y0003502D01*
X0044834Y0003500D01*
X0164023Y0003500D01*
X0164214Y0003502D01*
X0164405Y0003509D01*
X0164596Y0003521D01*
X0164786Y0003537D01*
X0164976Y0003558D01*
X0165165Y0003583D01*
X0165354Y0003613D01*
X0165542Y0003647D01*
X0165729Y0003686D01*
X0165915Y0003730D01*
X0166100Y0003778D01*
X0166284Y0003830D01*
X0166466Y0003887D01*
X0166647Y0003948D01*
X0166827Y0004014D01*
X0167004Y0004084D01*
X0167180Y0004158D01*
X0167355Y0004236D01*
X0167527Y0004319D01*
X0167697Y0004406D01*
X0167865Y0004496D01*
X0168031Y0004591D01*
X0168195Y0004690D01*
X0168356Y0004793D01*
X0168514Y0004899D01*
X0168670Y0005010D01*
X0168823Y0005124D01*
X0168974Y0005242D01*
X0169121Y0005363D01*
X0169266Y0005488D01*
X0169407Y0005617D01*
X0169545Y0005748D01*
X0169681Y0005884D01*
X0169812Y0006022D01*
X0169941Y0006163D01*
X0170066Y0006308D01*
X0170187Y0006455D01*
X0170305Y0006606D01*
X0170419Y0006759D01*
X0170530Y0006915D01*
X0170636Y0007073D01*
X0170739Y0007234D01*
X0170838Y0007398D01*
X0170933Y0007564D01*
X0171023Y0007732D01*
X0171110Y0007902D01*
X0171193Y0008074D01*
X0171271Y0008249D01*
X0171345Y0008425D01*
X0171415Y0008602D01*
X0171481Y0008782D01*
X0171542Y0008963D01*
X0171599Y0009145D01*
X0171651Y0009329D01*
X0171699Y0009514D01*
X0171743Y0009700D01*
X0171782Y0009887D01*
X0171816Y0010075D01*
X0171846Y0010264D01*
X0171871Y0010453D01*
X0171892Y0010643D01*
X0171908Y0010833D01*
X0171920Y0011024D01*
X0171927Y0011215D01*
X0171929Y0011406D01*
X0171928Y0011406D02*
X0171928Y0130594D01*
X0171929Y0130594D02*
X0171927Y0130785D01*
X0171920Y0130976D01*
X0171908Y0131167D01*
X0171892Y0131357D01*
X0171871Y0131547D01*
X0171846Y0131736D01*
X0171816Y0131925D01*
X0171782Y0132113D01*
X0171743Y0132300D01*
X0171699Y0132486D01*
X0171651Y0132671D01*
X0171599Y0132855D01*
X0171542Y0133037D01*
X0171481Y0133218D01*
X0171415Y0133398D01*
X0171345Y0133575D01*
X0171271Y0133751D01*
X0171193Y0133926D01*
X0171110Y0134098D01*
X0171023Y0134268D01*
X0170933Y0134436D01*
X0170838Y0134602D01*
X0170739Y0134766D01*
X0170636Y0134927D01*
X0170530Y0135085D01*
X0170419Y0135241D01*
X0170305Y0135394D01*
X0170187Y0135545D01*
X0170066Y0135692D01*
X0169941Y0135837D01*
X0169812Y0135978D01*
X0169681Y0136116D01*
X0169545Y0136252D01*
X0169407Y0136383D01*
X0169266Y0136512D01*
X0169121Y0136637D01*
X0168974Y0136758D01*
X0168823Y0136876D01*
X0168670Y0136990D01*
X0168514Y0137101D01*
X0168356Y0137207D01*
X0168195Y0137310D01*
X0168031Y0137409D01*
X0167865Y0137504D01*
X0167697Y0137594D01*
X0167527Y0137681D01*
X0167355Y0137764D01*
X0167180Y0137842D01*
X0167004Y0137916D01*
X0166827Y0137986D01*
X0166647Y0138052D01*
X0166466Y0138113D01*
X0166284Y0138170D01*
X0166100Y0138222D01*
X0165915Y0138270D01*
X0165729Y0138314D01*
X0165542Y0138353D01*
X0165354Y0138387D01*
X0165165Y0138417D01*
X0164976Y0138442D01*
X0164786Y0138463D01*
X0164596Y0138479D01*
X0164405Y0138491D01*
X0164214Y0138498D01*
X0164023Y0138500D01*
X0044834Y0138500D01*
X0044643Y0138498D01*
X0044452Y0138491D01*
X0044261Y0138479D01*
X0044071Y0138463D01*
X0043881Y0138442D01*
X0043692Y0138417D01*
X0043503Y0138387D01*
X0043315Y0138353D01*
X0043128Y0138314D01*
X0042942Y0138270D01*
X0042757Y0138222D01*
X0042573Y0138170D01*
X0042391Y0138113D01*
X0042210Y0138052D01*
X0042030Y0137986D01*
X0041853Y0137916D01*
X0041677Y0137842D01*
X0041502Y0137764D01*
X0041330Y0137681D01*
X0041160Y0137594D01*
X0040992Y0137504D01*
X0040826Y0137409D01*
X0040662Y0137310D01*
X0040501Y0137207D01*
X0040343Y0137101D01*
X0040187Y0136990D01*
X0040034Y0136876D01*
X0039883Y0136758D01*
X0039736Y0136637D01*
X0039591Y0136512D01*
X0039450Y0136383D01*
X0039312Y0136252D01*
X0039176Y0136116D01*
X0039045Y0135978D01*
X0038916Y0135837D01*
X0038791Y0135692D01*
X0038670Y0135545D01*
X0038552Y0135394D01*
X0038438Y0135241D01*
X0038327Y0135085D01*
X0038221Y0134927D01*
X0038118Y0134766D01*
X0038019Y0134602D01*
X0037924Y0134436D01*
X0037834Y0134268D01*
X0037747Y0134098D01*
X0037664Y0133926D01*
X0037586Y0133751D01*
X0037512Y0133575D01*
X0037442Y0133398D01*
X0037376Y0133218D01*
X0037315Y0133037D01*
X0037258Y0132855D01*
X0037206Y0132671D01*
X0037158Y0132486D01*
X0037114Y0132300D01*
X0037075Y0132113D01*
X0037041Y0131925D01*
X0037011Y0131736D01*
X0036986Y0131547D01*
X0036965Y0131357D01*
X0036949Y0131167D01*
X0036937Y0130976D01*
X0036930Y0130785D01*
X0036928Y0130594D01*
M02*
