%
M48
M72
T01C0.0217
T02C0.0354
T03C0.0551
T04C0.1260
%
T01
X16089Y3350
X16797Y3350
T02
X14833Y2090
X12693Y3710
X13698Y5026
X14553Y5040
X7943Y2100
X6633Y2920
X13693Y10600
X9914Y12191
T03
X9943Y13100
X10943Y13100
X11943Y13100
X12943Y13100
X13943Y13100
X14943Y13100
X16443Y11600
X16443Y10600
X16443Y9600
X16443Y8600
X16443Y7600
X16443Y6600
X14943Y1100
X13943Y1100
X12943Y1100
X11943Y1100
X10943Y1100
X9943Y1100
X8943Y1100
X7943Y1100
X6943Y1100
X5943Y1100
X5943Y13100
X6943Y13100
X7943Y13100
X8943Y13100
T04
X4693Y1350
X16193Y1350
X16193Y12850
X4693Y12850
M30
