%
M48
M72
T01C0.02165
T02C0.03543
T03C0.04331
T04C0.05118
T05C0.05906
T06C0.11024
%
T01
X160885Y38756
X167972Y38756
T02
X156928Y26256
X164428Y21256
T03
X49428Y21256
X49428Y31256
X49428Y41256
X49428Y51256
X49428Y61256
X49428Y71256
X49428Y81256
X49428Y91256
X49428Y101256
X49428Y111256
T04
X59428Y21256
X69428Y21256
X79428Y21256
X89428Y21256
X99428Y21256
X109428Y21256
X119428Y21256
X129428Y21256
X139428Y21256
X149428Y21256
X149428Y31256
X139428Y31256
X129428Y31256
X119428Y31256
X109428Y31256
X99428Y31256
X89428Y31256
X79428Y31256
X69428Y31256
X59428Y31256
X59428Y41256
X69428Y41256
X79428Y41256
X89428Y41256
X99428Y41256
X109428Y41256
X119428Y41256
X129428Y41256
X139428Y41256
X149428Y41256
X149428Y51256
X139428Y51256
X129428Y51256
X119428Y51256
X109428Y51256
X99428Y51256
X89428Y51256
X79428Y51256
X69428Y51256
X59428Y51256
X59428Y61256
X69428Y61256
X79428Y61256
X89428Y61256
X99428Y61256
X109428Y61256
X119428Y61256
X129428Y61256
X139428Y61256
X149428Y61256
X149428Y71256
X139428Y71256
X129428Y71256
X119428Y71256
X109428Y71256
X99428Y71256
X89428Y71256
X79428Y71256
X69428Y71256
X59428Y71256
X59428Y81256
X69428Y81256
X79428Y81256
X89428Y81256
X99428Y81256
X109428Y81256
X119428Y81256
X129428Y81256
X139428Y81256
X149428Y81256
X149428Y91256
X139428Y91256
X129428Y91256
X119428Y91256
X109428Y91256
X99428Y91256
X89428Y91256
X79428Y91256
X69428Y91256
X59428Y91256
X59428Y101256
X69428Y101256
X79428Y101256
X89428Y101256
X99428Y101256
X109428Y101256
X119428Y101256
X129428Y101256
X139428Y101256
X149428Y101256
X149428Y111256
X139428Y111256
X129428Y111256
X119428Y111256
X109428Y111256
X99428Y111256
X89428Y111256
X79428Y111256
X69428Y111256
X59428Y111256
T05
X59428Y6256
X69428Y6256
X79428Y6256
X89428Y6256
X99428Y6256
X109428Y6256
X119428Y6256
X129428Y6256
X139428Y6256
X149428Y6256
X164428Y61256
X164428Y71256
X164428Y81256
X164428Y91256
X164428Y101256
X164428Y111256
X149428Y126256
X139428Y126256
X129428Y126256
X119428Y126256
X109428Y126256
X99428Y126256
X89428Y126256
X79428Y126256
X69428Y126256
X59428Y126256
T06
X46928Y123756
X161928Y123756
X161928Y8756
X46928Y8756
M30
