G75*
%MOIN*%
%OFA0B0*%
%FSLAX25Y25*%
%IPPOS*%
%LPD*%
%AMOC8*
5,1,8,0,0,1.08239X$1,22.5*
%
%ADD10C,0.00000*%
D10*
X0039428Y0006256D02*
X0039428Y0126217D01*
X0039430Y0126357D01*
X0039436Y0126497D01*
X0039446Y0126637D01*
X0039459Y0126777D01*
X0039477Y0126916D01*
X0039499Y0127055D01*
X0039524Y0127192D01*
X0039553Y0127330D01*
X0039586Y0127466D01*
X0039623Y0127601D01*
X0039664Y0127735D01*
X0039709Y0127868D01*
X0039757Y0128000D01*
X0039809Y0128130D01*
X0039864Y0128259D01*
X0039923Y0128386D01*
X0039986Y0128512D01*
X0040052Y0128636D01*
X0040121Y0128757D01*
X0040194Y0128877D01*
X0040271Y0128995D01*
X0040350Y0129110D01*
X0040433Y0129224D01*
X0040519Y0129334D01*
X0040608Y0129443D01*
X0040700Y0129549D01*
X0040795Y0129652D01*
X0040892Y0129753D01*
X0040993Y0129850D01*
X0041096Y0129945D01*
X0041202Y0130037D01*
X0041311Y0130126D01*
X0041421Y0130212D01*
X0041535Y0130295D01*
X0041650Y0130374D01*
X0041768Y0130451D01*
X0041888Y0130524D01*
X0042009Y0130593D01*
X0042133Y0130659D01*
X0042259Y0130722D01*
X0042386Y0130781D01*
X0042515Y0130836D01*
X0042645Y0130888D01*
X0042777Y0130936D01*
X0042910Y0130981D01*
X0043044Y0131022D01*
X0043179Y0131059D01*
X0043315Y0131092D01*
X0043453Y0131121D01*
X0043590Y0131146D01*
X0043729Y0131168D01*
X0043868Y0131186D01*
X0044008Y0131199D01*
X0044148Y0131209D01*
X0044288Y0131215D01*
X0044428Y0131217D01*
X0164429Y0131217D01*
X0164569Y0131215D01*
X0164709Y0131209D01*
X0164849Y0131199D01*
X0164989Y0131186D01*
X0165128Y0131168D01*
X0165267Y0131146D01*
X0165404Y0131121D01*
X0165542Y0131092D01*
X0165678Y0131059D01*
X0165813Y0131022D01*
X0165947Y0130981D01*
X0166080Y0130936D01*
X0166212Y0130888D01*
X0166342Y0130836D01*
X0166471Y0130781D01*
X0166598Y0130722D01*
X0166724Y0130659D01*
X0166848Y0130593D01*
X0166969Y0130524D01*
X0167089Y0130451D01*
X0167207Y0130374D01*
X0167322Y0130295D01*
X0167436Y0130212D01*
X0167546Y0130126D01*
X0167655Y0130037D01*
X0167761Y0129945D01*
X0167864Y0129850D01*
X0167965Y0129753D01*
X0168062Y0129652D01*
X0168157Y0129549D01*
X0168249Y0129443D01*
X0168338Y0129334D01*
X0168424Y0129224D01*
X0168507Y0129110D01*
X0168586Y0128995D01*
X0168663Y0128877D01*
X0168736Y0128757D01*
X0168805Y0128636D01*
X0168871Y0128512D01*
X0168934Y0128386D01*
X0168993Y0128259D01*
X0169048Y0128130D01*
X0169100Y0128000D01*
X0169148Y0127868D01*
X0169193Y0127735D01*
X0169234Y0127601D01*
X0169271Y0127466D01*
X0169304Y0127330D01*
X0169333Y0127192D01*
X0169358Y0127055D01*
X0169380Y0126916D01*
X0169398Y0126777D01*
X0169411Y0126637D01*
X0169421Y0126497D01*
X0169427Y0126357D01*
X0169429Y0126217D01*
X0169429Y0006256D01*
X0169427Y0006116D01*
X0169421Y0005976D01*
X0169411Y0005836D01*
X0169398Y0005696D01*
X0169380Y0005557D01*
X0169358Y0005418D01*
X0169333Y0005281D01*
X0169304Y0005143D01*
X0169271Y0005007D01*
X0169234Y0004872D01*
X0169193Y0004738D01*
X0169148Y0004605D01*
X0169100Y0004473D01*
X0169048Y0004343D01*
X0168993Y0004214D01*
X0168934Y0004087D01*
X0168871Y0003961D01*
X0168805Y0003837D01*
X0168736Y0003716D01*
X0168663Y0003596D01*
X0168586Y0003478D01*
X0168507Y0003363D01*
X0168424Y0003249D01*
X0168338Y0003139D01*
X0168249Y0003030D01*
X0168157Y0002924D01*
X0168062Y0002821D01*
X0167965Y0002720D01*
X0167864Y0002623D01*
X0167761Y0002528D01*
X0167655Y0002436D01*
X0167546Y0002347D01*
X0167436Y0002261D01*
X0167322Y0002178D01*
X0167207Y0002099D01*
X0167089Y0002022D01*
X0166969Y0001949D01*
X0166848Y0001880D01*
X0166724Y0001814D01*
X0166598Y0001751D01*
X0166471Y0001692D01*
X0166342Y0001637D01*
X0166212Y0001585D01*
X0166080Y0001537D01*
X0165947Y0001492D01*
X0165813Y0001451D01*
X0165678Y0001414D01*
X0165542Y0001381D01*
X0165404Y0001352D01*
X0165267Y0001327D01*
X0165128Y0001305D01*
X0164989Y0001287D01*
X0164849Y0001274D01*
X0164709Y0001264D01*
X0164569Y0001258D01*
X0164429Y0001256D01*
X0044428Y0001256D01*
X0044288Y0001258D01*
X0044148Y0001264D01*
X0044008Y0001274D01*
X0043868Y0001287D01*
X0043729Y0001305D01*
X0043590Y0001327D01*
X0043453Y0001352D01*
X0043315Y0001381D01*
X0043179Y0001414D01*
X0043044Y0001451D01*
X0042910Y0001492D01*
X0042777Y0001537D01*
X0042645Y0001585D01*
X0042515Y0001637D01*
X0042386Y0001692D01*
X0042259Y0001751D01*
X0042133Y0001814D01*
X0042009Y0001880D01*
X0041888Y0001949D01*
X0041768Y0002022D01*
X0041650Y0002099D01*
X0041535Y0002178D01*
X0041421Y0002261D01*
X0041311Y0002347D01*
X0041202Y0002436D01*
X0041096Y0002528D01*
X0040993Y0002623D01*
X0040892Y0002720D01*
X0040795Y0002821D01*
X0040700Y0002924D01*
X0040608Y0003030D01*
X0040519Y0003139D01*
X0040433Y0003249D01*
X0040350Y0003363D01*
X0040271Y0003478D01*
X0040194Y0003596D01*
X0040121Y0003716D01*
X0040052Y0003837D01*
X0039986Y0003961D01*
X0039923Y0004087D01*
X0039864Y0004214D01*
X0039809Y0004343D01*
X0039757Y0004473D01*
X0039709Y0004605D01*
X0039664Y0004738D01*
X0039623Y0004872D01*
X0039586Y0005007D01*
X0039553Y0005143D01*
X0039524Y0005281D01*
X0039499Y0005418D01*
X0039477Y0005557D01*
X0039459Y0005696D01*
X0039446Y0005836D01*
X0039436Y0005976D01*
X0039430Y0006116D01*
X0039428Y0006256D01*
X0041416Y0008756D02*
X0041418Y0008904D01*
X0041424Y0009052D01*
X0041434Y0009200D01*
X0041448Y0009347D01*
X0041466Y0009494D01*
X0041487Y0009640D01*
X0041513Y0009786D01*
X0041543Y0009931D01*
X0041576Y0010075D01*
X0041614Y0010218D01*
X0041655Y0010360D01*
X0041700Y0010501D01*
X0041748Y0010641D01*
X0041801Y0010780D01*
X0041857Y0010917D01*
X0041917Y0011052D01*
X0041980Y0011186D01*
X0042047Y0011318D01*
X0042118Y0011448D01*
X0042192Y0011576D01*
X0042269Y0011702D01*
X0042350Y0011826D01*
X0042434Y0011948D01*
X0042521Y0012067D01*
X0042612Y0012184D01*
X0042706Y0012299D01*
X0042802Y0012411D01*
X0042902Y0012521D01*
X0043004Y0012627D01*
X0043110Y0012731D01*
X0043218Y0012832D01*
X0043329Y0012930D01*
X0043442Y0013026D01*
X0043558Y0013118D01*
X0043676Y0013207D01*
X0043797Y0013292D01*
X0043920Y0013375D01*
X0044045Y0013454D01*
X0044172Y0013530D01*
X0044301Y0013602D01*
X0044432Y0013671D01*
X0044565Y0013736D01*
X0044700Y0013797D01*
X0044836Y0013855D01*
X0044973Y0013910D01*
X0045112Y0013960D01*
X0045253Y0014007D01*
X0045394Y0014050D01*
X0045537Y0014090D01*
X0045681Y0014125D01*
X0045825Y0014157D01*
X0045971Y0014184D01*
X0046117Y0014208D01*
X0046264Y0014228D01*
X0046411Y0014244D01*
X0046558Y0014256D01*
X0046706Y0014264D01*
X0046854Y0014268D01*
X0047002Y0014268D01*
X0047150Y0014264D01*
X0047298Y0014256D01*
X0047445Y0014244D01*
X0047592Y0014228D01*
X0047739Y0014208D01*
X0047885Y0014184D01*
X0048031Y0014157D01*
X0048175Y0014125D01*
X0048319Y0014090D01*
X0048462Y0014050D01*
X0048603Y0014007D01*
X0048744Y0013960D01*
X0048883Y0013910D01*
X0049020Y0013855D01*
X0049156Y0013797D01*
X0049291Y0013736D01*
X0049424Y0013671D01*
X0049555Y0013602D01*
X0049684Y0013530D01*
X0049811Y0013454D01*
X0049936Y0013375D01*
X0050059Y0013292D01*
X0050180Y0013207D01*
X0050298Y0013118D01*
X0050414Y0013026D01*
X0050527Y0012930D01*
X0050638Y0012832D01*
X0050746Y0012731D01*
X0050852Y0012627D01*
X0050954Y0012521D01*
X0051054Y0012411D01*
X0051150Y0012299D01*
X0051244Y0012184D01*
X0051335Y0012067D01*
X0051422Y0011948D01*
X0051506Y0011826D01*
X0051587Y0011702D01*
X0051664Y0011576D01*
X0051738Y0011448D01*
X0051809Y0011318D01*
X0051876Y0011186D01*
X0051939Y0011052D01*
X0051999Y0010917D01*
X0052055Y0010780D01*
X0052108Y0010641D01*
X0052156Y0010501D01*
X0052201Y0010360D01*
X0052242Y0010218D01*
X0052280Y0010075D01*
X0052313Y0009931D01*
X0052343Y0009786D01*
X0052369Y0009640D01*
X0052390Y0009494D01*
X0052408Y0009347D01*
X0052422Y0009200D01*
X0052432Y0009052D01*
X0052438Y0008904D01*
X0052440Y0008756D01*
X0052438Y0008608D01*
X0052432Y0008460D01*
X0052422Y0008312D01*
X0052408Y0008165D01*
X0052390Y0008018D01*
X0052369Y0007872D01*
X0052343Y0007726D01*
X0052313Y0007581D01*
X0052280Y0007437D01*
X0052242Y0007294D01*
X0052201Y0007152D01*
X0052156Y0007011D01*
X0052108Y0006871D01*
X0052055Y0006732D01*
X0051999Y0006595D01*
X0051939Y0006460D01*
X0051876Y0006326D01*
X0051809Y0006194D01*
X0051738Y0006064D01*
X0051664Y0005936D01*
X0051587Y0005810D01*
X0051506Y0005686D01*
X0051422Y0005564D01*
X0051335Y0005445D01*
X0051244Y0005328D01*
X0051150Y0005213D01*
X0051054Y0005101D01*
X0050954Y0004991D01*
X0050852Y0004885D01*
X0050746Y0004781D01*
X0050638Y0004680D01*
X0050527Y0004582D01*
X0050414Y0004486D01*
X0050298Y0004394D01*
X0050180Y0004305D01*
X0050059Y0004220D01*
X0049936Y0004137D01*
X0049811Y0004058D01*
X0049684Y0003982D01*
X0049555Y0003910D01*
X0049424Y0003841D01*
X0049291Y0003776D01*
X0049156Y0003715D01*
X0049020Y0003657D01*
X0048883Y0003602D01*
X0048744Y0003552D01*
X0048603Y0003505D01*
X0048462Y0003462D01*
X0048319Y0003422D01*
X0048175Y0003387D01*
X0048031Y0003355D01*
X0047885Y0003328D01*
X0047739Y0003304D01*
X0047592Y0003284D01*
X0047445Y0003268D01*
X0047298Y0003256D01*
X0047150Y0003248D01*
X0047002Y0003244D01*
X0046854Y0003244D01*
X0046706Y0003248D01*
X0046558Y0003256D01*
X0046411Y0003268D01*
X0046264Y0003284D01*
X0046117Y0003304D01*
X0045971Y0003328D01*
X0045825Y0003355D01*
X0045681Y0003387D01*
X0045537Y0003422D01*
X0045394Y0003462D01*
X0045253Y0003505D01*
X0045112Y0003552D01*
X0044973Y0003602D01*
X0044836Y0003657D01*
X0044700Y0003715D01*
X0044565Y0003776D01*
X0044432Y0003841D01*
X0044301Y0003910D01*
X0044172Y0003982D01*
X0044045Y0004058D01*
X0043920Y0004137D01*
X0043797Y0004220D01*
X0043676Y0004305D01*
X0043558Y0004394D01*
X0043442Y0004486D01*
X0043329Y0004582D01*
X0043218Y0004680D01*
X0043110Y0004781D01*
X0043004Y0004885D01*
X0042902Y0004991D01*
X0042802Y0005101D01*
X0042706Y0005213D01*
X0042612Y0005328D01*
X0042521Y0005445D01*
X0042434Y0005564D01*
X0042350Y0005686D01*
X0042269Y0005810D01*
X0042192Y0005936D01*
X0042118Y0006064D01*
X0042047Y0006194D01*
X0041980Y0006326D01*
X0041917Y0006460D01*
X0041857Y0006595D01*
X0041801Y0006732D01*
X0041748Y0006871D01*
X0041700Y0007011D01*
X0041655Y0007152D01*
X0041614Y0007294D01*
X0041576Y0007437D01*
X0041543Y0007581D01*
X0041513Y0007726D01*
X0041487Y0007872D01*
X0041466Y0008018D01*
X0041448Y0008165D01*
X0041434Y0008312D01*
X0041424Y0008460D01*
X0041418Y0008608D01*
X0041416Y0008756D01*
X0156416Y0008756D02*
X0156418Y0008904D01*
X0156424Y0009052D01*
X0156434Y0009200D01*
X0156448Y0009347D01*
X0156466Y0009494D01*
X0156487Y0009640D01*
X0156513Y0009786D01*
X0156543Y0009931D01*
X0156576Y0010075D01*
X0156614Y0010218D01*
X0156655Y0010360D01*
X0156700Y0010501D01*
X0156748Y0010641D01*
X0156801Y0010780D01*
X0156857Y0010917D01*
X0156917Y0011052D01*
X0156980Y0011186D01*
X0157047Y0011318D01*
X0157118Y0011448D01*
X0157192Y0011576D01*
X0157269Y0011702D01*
X0157350Y0011826D01*
X0157434Y0011948D01*
X0157521Y0012067D01*
X0157612Y0012184D01*
X0157706Y0012299D01*
X0157802Y0012411D01*
X0157902Y0012521D01*
X0158004Y0012627D01*
X0158110Y0012731D01*
X0158218Y0012832D01*
X0158329Y0012930D01*
X0158442Y0013026D01*
X0158558Y0013118D01*
X0158676Y0013207D01*
X0158797Y0013292D01*
X0158920Y0013375D01*
X0159045Y0013454D01*
X0159172Y0013530D01*
X0159301Y0013602D01*
X0159432Y0013671D01*
X0159565Y0013736D01*
X0159700Y0013797D01*
X0159836Y0013855D01*
X0159973Y0013910D01*
X0160112Y0013960D01*
X0160253Y0014007D01*
X0160394Y0014050D01*
X0160537Y0014090D01*
X0160681Y0014125D01*
X0160825Y0014157D01*
X0160971Y0014184D01*
X0161117Y0014208D01*
X0161264Y0014228D01*
X0161411Y0014244D01*
X0161558Y0014256D01*
X0161706Y0014264D01*
X0161854Y0014268D01*
X0162002Y0014268D01*
X0162150Y0014264D01*
X0162298Y0014256D01*
X0162445Y0014244D01*
X0162592Y0014228D01*
X0162739Y0014208D01*
X0162885Y0014184D01*
X0163031Y0014157D01*
X0163175Y0014125D01*
X0163319Y0014090D01*
X0163462Y0014050D01*
X0163603Y0014007D01*
X0163744Y0013960D01*
X0163883Y0013910D01*
X0164020Y0013855D01*
X0164156Y0013797D01*
X0164291Y0013736D01*
X0164424Y0013671D01*
X0164555Y0013602D01*
X0164684Y0013530D01*
X0164811Y0013454D01*
X0164936Y0013375D01*
X0165059Y0013292D01*
X0165180Y0013207D01*
X0165298Y0013118D01*
X0165414Y0013026D01*
X0165527Y0012930D01*
X0165638Y0012832D01*
X0165746Y0012731D01*
X0165852Y0012627D01*
X0165954Y0012521D01*
X0166054Y0012411D01*
X0166150Y0012299D01*
X0166244Y0012184D01*
X0166335Y0012067D01*
X0166422Y0011948D01*
X0166506Y0011826D01*
X0166587Y0011702D01*
X0166664Y0011576D01*
X0166738Y0011448D01*
X0166809Y0011318D01*
X0166876Y0011186D01*
X0166939Y0011052D01*
X0166999Y0010917D01*
X0167055Y0010780D01*
X0167108Y0010641D01*
X0167156Y0010501D01*
X0167201Y0010360D01*
X0167242Y0010218D01*
X0167280Y0010075D01*
X0167313Y0009931D01*
X0167343Y0009786D01*
X0167369Y0009640D01*
X0167390Y0009494D01*
X0167408Y0009347D01*
X0167422Y0009200D01*
X0167432Y0009052D01*
X0167438Y0008904D01*
X0167440Y0008756D01*
X0167438Y0008608D01*
X0167432Y0008460D01*
X0167422Y0008312D01*
X0167408Y0008165D01*
X0167390Y0008018D01*
X0167369Y0007872D01*
X0167343Y0007726D01*
X0167313Y0007581D01*
X0167280Y0007437D01*
X0167242Y0007294D01*
X0167201Y0007152D01*
X0167156Y0007011D01*
X0167108Y0006871D01*
X0167055Y0006732D01*
X0166999Y0006595D01*
X0166939Y0006460D01*
X0166876Y0006326D01*
X0166809Y0006194D01*
X0166738Y0006064D01*
X0166664Y0005936D01*
X0166587Y0005810D01*
X0166506Y0005686D01*
X0166422Y0005564D01*
X0166335Y0005445D01*
X0166244Y0005328D01*
X0166150Y0005213D01*
X0166054Y0005101D01*
X0165954Y0004991D01*
X0165852Y0004885D01*
X0165746Y0004781D01*
X0165638Y0004680D01*
X0165527Y0004582D01*
X0165414Y0004486D01*
X0165298Y0004394D01*
X0165180Y0004305D01*
X0165059Y0004220D01*
X0164936Y0004137D01*
X0164811Y0004058D01*
X0164684Y0003982D01*
X0164555Y0003910D01*
X0164424Y0003841D01*
X0164291Y0003776D01*
X0164156Y0003715D01*
X0164020Y0003657D01*
X0163883Y0003602D01*
X0163744Y0003552D01*
X0163603Y0003505D01*
X0163462Y0003462D01*
X0163319Y0003422D01*
X0163175Y0003387D01*
X0163031Y0003355D01*
X0162885Y0003328D01*
X0162739Y0003304D01*
X0162592Y0003284D01*
X0162445Y0003268D01*
X0162298Y0003256D01*
X0162150Y0003248D01*
X0162002Y0003244D01*
X0161854Y0003244D01*
X0161706Y0003248D01*
X0161558Y0003256D01*
X0161411Y0003268D01*
X0161264Y0003284D01*
X0161117Y0003304D01*
X0160971Y0003328D01*
X0160825Y0003355D01*
X0160681Y0003387D01*
X0160537Y0003422D01*
X0160394Y0003462D01*
X0160253Y0003505D01*
X0160112Y0003552D01*
X0159973Y0003602D01*
X0159836Y0003657D01*
X0159700Y0003715D01*
X0159565Y0003776D01*
X0159432Y0003841D01*
X0159301Y0003910D01*
X0159172Y0003982D01*
X0159045Y0004058D01*
X0158920Y0004137D01*
X0158797Y0004220D01*
X0158676Y0004305D01*
X0158558Y0004394D01*
X0158442Y0004486D01*
X0158329Y0004582D01*
X0158218Y0004680D01*
X0158110Y0004781D01*
X0158004Y0004885D01*
X0157902Y0004991D01*
X0157802Y0005101D01*
X0157706Y0005213D01*
X0157612Y0005328D01*
X0157521Y0005445D01*
X0157434Y0005564D01*
X0157350Y0005686D01*
X0157269Y0005810D01*
X0157192Y0005936D01*
X0157118Y0006064D01*
X0157047Y0006194D01*
X0156980Y0006326D01*
X0156917Y0006460D01*
X0156857Y0006595D01*
X0156801Y0006732D01*
X0156748Y0006871D01*
X0156700Y0007011D01*
X0156655Y0007152D01*
X0156614Y0007294D01*
X0156576Y0007437D01*
X0156543Y0007581D01*
X0156513Y0007726D01*
X0156487Y0007872D01*
X0156466Y0008018D01*
X0156448Y0008165D01*
X0156434Y0008312D01*
X0156424Y0008460D01*
X0156418Y0008608D01*
X0156416Y0008756D01*
X0159802Y0038756D02*
X0159804Y0038821D01*
X0159810Y0038887D01*
X0159820Y0038951D01*
X0159833Y0039015D01*
X0159851Y0039078D01*
X0159872Y0039140D01*
X0159897Y0039200D01*
X0159926Y0039259D01*
X0159958Y0039316D01*
X0159994Y0039371D01*
X0160032Y0039424D01*
X0160074Y0039474D01*
X0160119Y0039522D01*
X0160167Y0039567D01*
X0160217Y0039609D01*
X0160270Y0039647D01*
X0160325Y0039683D01*
X0160382Y0039715D01*
X0160441Y0039744D01*
X0160501Y0039769D01*
X0160563Y0039790D01*
X0160626Y0039808D01*
X0160690Y0039821D01*
X0160754Y0039831D01*
X0160820Y0039837D01*
X0160885Y0039839D01*
X0160950Y0039837D01*
X0161016Y0039831D01*
X0161080Y0039821D01*
X0161144Y0039808D01*
X0161207Y0039790D01*
X0161269Y0039769D01*
X0161329Y0039744D01*
X0161388Y0039715D01*
X0161445Y0039683D01*
X0161500Y0039647D01*
X0161553Y0039609D01*
X0161603Y0039567D01*
X0161651Y0039522D01*
X0161696Y0039474D01*
X0161738Y0039424D01*
X0161776Y0039371D01*
X0161812Y0039316D01*
X0161844Y0039259D01*
X0161873Y0039200D01*
X0161898Y0039140D01*
X0161919Y0039078D01*
X0161937Y0039015D01*
X0161950Y0038951D01*
X0161960Y0038887D01*
X0161966Y0038821D01*
X0161968Y0038756D01*
X0161966Y0038691D01*
X0161960Y0038625D01*
X0161950Y0038561D01*
X0161937Y0038497D01*
X0161919Y0038434D01*
X0161898Y0038372D01*
X0161873Y0038312D01*
X0161844Y0038253D01*
X0161812Y0038196D01*
X0161776Y0038141D01*
X0161738Y0038088D01*
X0161696Y0038038D01*
X0161651Y0037990D01*
X0161603Y0037945D01*
X0161553Y0037903D01*
X0161500Y0037865D01*
X0161445Y0037829D01*
X0161388Y0037797D01*
X0161329Y0037768D01*
X0161269Y0037743D01*
X0161207Y0037722D01*
X0161144Y0037704D01*
X0161080Y0037691D01*
X0161016Y0037681D01*
X0160950Y0037675D01*
X0160885Y0037673D01*
X0160820Y0037675D01*
X0160754Y0037681D01*
X0160690Y0037691D01*
X0160626Y0037704D01*
X0160563Y0037722D01*
X0160501Y0037743D01*
X0160441Y0037768D01*
X0160382Y0037797D01*
X0160325Y0037829D01*
X0160270Y0037865D01*
X0160217Y0037903D01*
X0160167Y0037945D01*
X0160119Y0037990D01*
X0160074Y0038038D01*
X0160032Y0038088D01*
X0159994Y0038141D01*
X0159958Y0038196D01*
X0159926Y0038253D01*
X0159897Y0038312D01*
X0159872Y0038372D01*
X0159851Y0038434D01*
X0159833Y0038497D01*
X0159820Y0038561D01*
X0159810Y0038625D01*
X0159804Y0038691D01*
X0159802Y0038756D01*
X0166889Y0038756D02*
X0166891Y0038821D01*
X0166897Y0038887D01*
X0166907Y0038951D01*
X0166920Y0039015D01*
X0166938Y0039078D01*
X0166959Y0039140D01*
X0166984Y0039200D01*
X0167013Y0039259D01*
X0167045Y0039316D01*
X0167081Y0039371D01*
X0167119Y0039424D01*
X0167161Y0039474D01*
X0167206Y0039522D01*
X0167254Y0039567D01*
X0167304Y0039609D01*
X0167357Y0039647D01*
X0167412Y0039683D01*
X0167469Y0039715D01*
X0167528Y0039744D01*
X0167588Y0039769D01*
X0167650Y0039790D01*
X0167713Y0039808D01*
X0167777Y0039821D01*
X0167841Y0039831D01*
X0167907Y0039837D01*
X0167972Y0039839D01*
X0168037Y0039837D01*
X0168103Y0039831D01*
X0168167Y0039821D01*
X0168231Y0039808D01*
X0168294Y0039790D01*
X0168356Y0039769D01*
X0168416Y0039744D01*
X0168475Y0039715D01*
X0168532Y0039683D01*
X0168587Y0039647D01*
X0168640Y0039609D01*
X0168690Y0039567D01*
X0168738Y0039522D01*
X0168783Y0039474D01*
X0168825Y0039424D01*
X0168863Y0039371D01*
X0168899Y0039316D01*
X0168931Y0039259D01*
X0168960Y0039200D01*
X0168985Y0039140D01*
X0169006Y0039078D01*
X0169024Y0039015D01*
X0169037Y0038951D01*
X0169047Y0038887D01*
X0169053Y0038821D01*
X0169055Y0038756D01*
X0169053Y0038691D01*
X0169047Y0038625D01*
X0169037Y0038561D01*
X0169024Y0038497D01*
X0169006Y0038434D01*
X0168985Y0038372D01*
X0168960Y0038312D01*
X0168931Y0038253D01*
X0168899Y0038196D01*
X0168863Y0038141D01*
X0168825Y0038088D01*
X0168783Y0038038D01*
X0168738Y0037990D01*
X0168690Y0037945D01*
X0168640Y0037903D01*
X0168587Y0037865D01*
X0168532Y0037829D01*
X0168475Y0037797D01*
X0168416Y0037768D01*
X0168356Y0037743D01*
X0168294Y0037722D01*
X0168231Y0037704D01*
X0168167Y0037691D01*
X0168103Y0037681D01*
X0168037Y0037675D01*
X0167972Y0037673D01*
X0167907Y0037675D01*
X0167841Y0037681D01*
X0167777Y0037691D01*
X0167713Y0037704D01*
X0167650Y0037722D01*
X0167588Y0037743D01*
X0167528Y0037768D01*
X0167469Y0037797D01*
X0167412Y0037829D01*
X0167357Y0037865D01*
X0167304Y0037903D01*
X0167254Y0037945D01*
X0167206Y0037990D01*
X0167161Y0038038D01*
X0167119Y0038088D01*
X0167081Y0038141D01*
X0167045Y0038196D01*
X0167013Y0038253D01*
X0166984Y0038312D01*
X0166959Y0038372D01*
X0166938Y0038434D01*
X0166920Y0038497D01*
X0166907Y0038561D01*
X0166897Y0038625D01*
X0166891Y0038691D01*
X0166889Y0038756D01*
X0156416Y0123756D02*
X0156418Y0123904D01*
X0156424Y0124052D01*
X0156434Y0124200D01*
X0156448Y0124347D01*
X0156466Y0124494D01*
X0156487Y0124640D01*
X0156513Y0124786D01*
X0156543Y0124931D01*
X0156576Y0125075D01*
X0156614Y0125218D01*
X0156655Y0125360D01*
X0156700Y0125501D01*
X0156748Y0125641D01*
X0156801Y0125780D01*
X0156857Y0125917D01*
X0156917Y0126052D01*
X0156980Y0126186D01*
X0157047Y0126318D01*
X0157118Y0126448D01*
X0157192Y0126576D01*
X0157269Y0126702D01*
X0157350Y0126826D01*
X0157434Y0126948D01*
X0157521Y0127067D01*
X0157612Y0127184D01*
X0157706Y0127299D01*
X0157802Y0127411D01*
X0157902Y0127521D01*
X0158004Y0127627D01*
X0158110Y0127731D01*
X0158218Y0127832D01*
X0158329Y0127930D01*
X0158442Y0128026D01*
X0158558Y0128118D01*
X0158676Y0128207D01*
X0158797Y0128292D01*
X0158920Y0128375D01*
X0159045Y0128454D01*
X0159172Y0128530D01*
X0159301Y0128602D01*
X0159432Y0128671D01*
X0159565Y0128736D01*
X0159700Y0128797D01*
X0159836Y0128855D01*
X0159973Y0128910D01*
X0160112Y0128960D01*
X0160253Y0129007D01*
X0160394Y0129050D01*
X0160537Y0129090D01*
X0160681Y0129125D01*
X0160825Y0129157D01*
X0160971Y0129184D01*
X0161117Y0129208D01*
X0161264Y0129228D01*
X0161411Y0129244D01*
X0161558Y0129256D01*
X0161706Y0129264D01*
X0161854Y0129268D01*
X0162002Y0129268D01*
X0162150Y0129264D01*
X0162298Y0129256D01*
X0162445Y0129244D01*
X0162592Y0129228D01*
X0162739Y0129208D01*
X0162885Y0129184D01*
X0163031Y0129157D01*
X0163175Y0129125D01*
X0163319Y0129090D01*
X0163462Y0129050D01*
X0163603Y0129007D01*
X0163744Y0128960D01*
X0163883Y0128910D01*
X0164020Y0128855D01*
X0164156Y0128797D01*
X0164291Y0128736D01*
X0164424Y0128671D01*
X0164555Y0128602D01*
X0164684Y0128530D01*
X0164811Y0128454D01*
X0164936Y0128375D01*
X0165059Y0128292D01*
X0165180Y0128207D01*
X0165298Y0128118D01*
X0165414Y0128026D01*
X0165527Y0127930D01*
X0165638Y0127832D01*
X0165746Y0127731D01*
X0165852Y0127627D01*
X0165954Y0127521D01*
X0166054Y0127411D01*
X0166150Y0127299D01*
X0166244Y0127184D01*
X0166335Y0127067D01*
X0166422Y0126948D01*
X0166506Y0126826D01*
X0166587Y0126702D01*
X0166664Y0126576D01*
X0166738Y0126448D01*
X0166809Y0126318D01*
X0166876Y0126186D01*
X0166939Y0126052D01*
X0166999Y0125917D01*
X0167055Y0125780D01*
X0167108Y0125641D01*
X0167156Y0125501D01*
X0167201Y0125360D01*
X0167242Y0125218D01*
X0167280Y0125075D01*
X0167313Y0124931D01*
X0167343Y0124786D01*
X0167369Y0124640D01*
X0167390Y0124494D01*
X0167408Y0124347D01*
X0167422Y0124200D01*
X0167432Y0124052D01*
X0167438Y0123904D01*
X0167440Y0123756D01*
X0167438Y0123608D01*
X0167432Y0123460D01*
X0167422Y0123312D01*
X0167408Y0123165D01*
X0167390Y0123018D01*
X0167369Y0122872D01*
X0167343Y0122726D01*
X0167313Y0122581D01*
X0167280Y0122437D01*
X0167242Y0122294D01*
X0167201Y0122152D01*
X0167156Y0122011D01*
X0167108Y0121871D01*
X0167055Y0121732D01*
X0166999Y0121595D01*
X0166939Y0121460D01*
X0166876Y0121326D01*
X0166809Y0121194D01*
X0166738Y0121064D01*
X0166664Y0120936D01*
X0166587Y0120810D01*
X0166506Y0120686D01*
X0166422Y0120564D01*
X0166335Y0120445D01*
X0166244Y0120328D01*
X0166150Y0120213D01*
X0166054Y0120101D01*
X0165954Y0119991D01*
X0165852Y0119885D01*
X0165746Y0119781D01*
X0165638Y0119680D01*
X0165527Y0119582D01*
X0165414Y0119486D01*
X0165298Y0119394D01*
X0165180Y0119305D01*
X0165059Y0119220D01*
X0164936Y0119137D01*
X0164811Y0119058D01*
X0164684Y0118982D01*
X0164555Y0118910D01*
X0164424Y0118841D01*
X0164291Y0118776D01*
X0164156Y0118715D01*
X0164020Y0118657D01*
X0163883Y0118602D01*
X0163744Y0118552D01*
X0163603Y0118505D01*
X0163462Y0118462D01*
X0163319Y0118422D01*
X0163175Y0118387D01*
X0163031Y0118355D01*
X0162885Y0118328D01*
X0162739Y0118304D01*
X0162592Y0118284D01*
X0162445Y0118268D01*
X0162298Y0118256D01*
X0162150Y0118248D01*
X0162002Y0118244D01*
X0161854Y0118244D01*
X0161706Y0118248D01*
X0161558Y0118256D01*
X0161411Y0118268D01*
X0161264Y0118284D01*
X0161117Y0118304D01*
X0160971Y0118328D01*
X0160825Y0118355D01*
X0160681Y0118387D01*
X0160537Y0118422D01*
X0160394Y0118462D01*
X0160253Y0118505D01*
X0160112Y0118552D01*
X0159973Y0118602D01*
X0159836Y0118657D01*
X0159700Y0118715D01*
X0159565Y0118776D01*
X0159432Y0118841D01*
X0159301Y0118910D01*
X0159172Y0118982D01*
X0159045Y0119058D01*
X0158920Y0119137D01*
X0158797Y0119220D01*
X0158676Y0119305D01*
X0158558Y0119394D01*
X0158442Y0119486D01*
X0158329Y0119582D01*
X0158218Y0119680D01*
X0158110Y0119781D01*
X0158004Y0119885D01*
X0157902Y0119991D01*
X0157802Y0120101D01*
X0157706Y0120213D01*
X0157612Y0120328D01*
X0157521Y0120445D01*
X0157434Y0120564D01*
X0157350Y0120686D01*
X0157269Y0120810D01*
X0157192Y0120936D01*
X0157118Y0121064D01*
X0157047Y0121194D01*
X0156980Y0121326D01*
X0156917Y0121460D01*
X0156857Y0121595D01*
X0156801Y0121732D01*
X0156748Y0121871D01*
X0156700Y0122011D01*
X0156655Y0122152D01*
X0156614Y0122294D01*
X0156576Y0122437D01*
X0156543Y0122581D01*
X0156513Y0122726D01*
X0156487Y0122872D01*
X0156466Y0123018D01*
X0156448Y0123165D01*
X0156434Y0123312D01*
X0156424Y0123460D01*
X0156418Y0123608D01*
X0156416Y0123756D01*
X0041416Y0123756D02*
X0041418Y0123904D01*
X0041424Y0124052D01*
X0041434Y0124200D01*
X0041448Y0124347D01*
X0041466Y0124494D01*
X0041487Y0124640D01*
X0041513Y0124786D01*
X0041543Y0124931D01*
X0041576Y0125075D01*
X0041614Y0125218D01*
X0041655Y0125360D01*
X0041700Y0125501D01*
X0041748Y0125641D01*
X0041801Y0125780D01*
X0041857Y0125917D01*
X0041917Y0126052D01*
X0041980Y0126186D01*
X0042047Y0126318D01*
X0042118Y0126448D01*
X0042192Y0126576D01*
X0042269Y0126702D01*
X0042350Y0126826D01*
X0042434Y0126948D01*
X0042521Y0127067D01*
X0042612Y0127184D01*
X0042706Y0127299D01*
X0042802Y0127411D01*
X0042902Y0127521D01*
X0043004Y0127627D01*
X0043110Y0127731D01*
X0043218Y0127832D01*
X0043329Y0127930D01*
X0043442Y0128026D01*
X0043558Y0128118D01*
X0043676Y0128207D01*
X0043797Y0128292D01*
X0043920Y0128375D01*
X0044045Y0128454D01*
X0044172Y0128530D01*
X0044301Y0128602D01*
X0044432Y0128671D01*
X0044565Y0128736D01*
X0044700Y0128797D01*
X0044836Y0128855D01*
X0044973Y0128910D01*
X0045112Y0128960D01*
X0045253Y0129007D01*
X0045394Y0129050D01*
X0045537Y0129090D01*
X0045681Y0129125D01*
X0045825Y0129157D01*
X0045971Y0129184D01*
X0046117Y0129208D01*
X0046264Y0129228D01*
X0046411Y0129244D01*
X0046558Y0129256D01*
X0046706Y0129264D01*
X0046854Y0129268D01*
X0047002Y0129268D01*
X0047150Y0129264D01*
X0047298Y0129256D01*
X0047445Y0129244D01*
X0047592Y0129228D01*
X0047739Y0129208D01*
X0047885Y0129184D01*
X0048031Y0129157D01*
X0048175Y0129125D01*
X0048319Y0129090D01*
X0048462Y0129050D01*
X0048603Y0129007D01*
X0048744Y0128960D01*
X0048883Y0128910D01*
X0049020Y0128855D01*
X0049156Y0128797D01*
X0049291Y0128736D01*
X0049424Y0128671D01*
X0049555Y0128602D01*
X0049684Y0128530D01*
X0049811Y0128454D01*
X0049936Y0128375D01*
X0050059Y0128292D01*
X0050180Y0128207D01*
X0050298Y0128118D01*
X0050414Y0128026D01*
X0050527Y0127930D01*
X0050638Y0127832D01*
X0050746Y0127731D01*
X0050852Y0127627D01*
X0050954Y0127521D01*
X0051054Y0127411D01*
X0051150Y0127299D01*
X0051244Y0127184D01*
X0051335Y0127067D01*
X0051422Y0126948D01*
X0051506Y0126826D01*
X0051587Y0126702D01*
X0051664Y0126576D01*
X0051738Y0126448D01*
X0051809Y0126318D01*
X0051876Y0126186D01*
X0051939Y0126052D01*
X0051999Y0125917D01*
X0052055Y0125780D01*
X0052108Y0125641D01*
X0052156Y0125501D01*
X0052201Y0125360D01*
X0052242Y0125218D01*
X0052280Y0125075D01*
X0052313Y0124931D01*
X0052343Y0124786D01*
X0052369Y0124640D01*
X0052390Y0124494D01*
X0052408Y0124347D01*
X0052422Y0124200D01*
X0052432Y0124052D01*
X0052438Y0123904D01*
X0052440Y0123756D01*
X0052438Y0123608D01*
X0052432Y0123460D01*
X0052422Y0123312D01*
X0052408Y0123165D01*
X0052390Y0123018D01*
X0052369Y0122872D01*
X0052343Y0122726D01*
X0052313Y0122581D01*
X0052280Y0122437D01*
X0052242Y0122294D01*
X0052201Y0122152D01*
X0052156Y0122011D01*
X0052108Y0121871D01*
X0052055Y0121732D01*
X0051999Y0121595D01*
X0051939Y0121460D01*
X0051876Y0121326D01*
X0051809Y0121194D01*
X0051738Y0121064D01*
X0051664Y0120936D01*
X0051587Y0120810D01*
X0051506Y0120686D01*
X0051422Y0120564D01*
X0051335Y0120445D01*
X0051244Y0120328D01*
X0051150Y0120213D01*
X0051054Y0120101D01*
X0050954Y0119991D01*
X0050852Y0119885D01*
X0050746Y0119781D01*
X0050638Y0119680D01*
X0050527Y0119582D01*
X0050414Y0119486D01*
X0050298Y0119394D01*
X0050180Y0119305D01*
X0050059Y0119220D01*
X0049936Y0119137D01*
X0049811Y0119058D01*
X0049684Y0118982D01*
X0049555Y0118910D01*
X0049424Y0118841D01*
X0049291Y0118776D01*
X0049156Y0118715D01*
X0049020Y0118657D01*
X0048883Y0118602D01*
X0048744Y0118552D01*
X0048603Y0118505D01*
X0048462Y0118462D01*
X0048319Y0118422D01*
X0048175Y0118387D01*
X0048031Y0118355D01*
X0047885Y0118328D01*
X0047739Y0118304D01*
X0047592Y0118284D01*
X0047445Y0118268D01*
X0047298Y0118256D01*
X0047150Y0118248D01*
X0047002Y0118244D01*
X0046854Y0118244D01*
X0046706Y0118248D01*
X0046558Y0118256D01*
X0046411Y0118268D01*
X0046264Y0118284D01*
X0046117Y0118304D01*
X0045971Y0118328D01*
X0045825Y0118355D01*
X0045681Y0118387D01*
X0045537Y0118422D01*
X0045394Y0118462D01*
X0045253Y0118505D01*
X0045112Y0118552D01*
X0044973Y0118602D01*
X0044836Y0118657D01*
X0044700Y0118715D01*
X0044565Y0118776D01*
X0044432Y0118841D01*
X0044301Y0118910D01*
X0044172Y0118982D01*
X0044045Y0119058D01*
X0043920Y0119137D01*
X0043797Y0119220D01*
X0043676Y0119305D01*
X0043558Y0119394D01*
X0043442Y0119486D01*
X0043329Y0119582D01*
X0043218Y0119680D01*
X0043110Y0119781D01*
X0043004Y0119885D01*
X0042902Y0119991D01*
X0042802Y0120101D01*
X0042706Y0120213D01*
X0042612Y0120328D01*
X0042521Y0120445D01*
X0042434Y0120564D01*
X0042350Y0120686D01*
X0042269Y0120810D01*
X0042192Y0120936D01*
X0042118Y0121064D01*
X0042047Y0121194D01*
X0041980Y0121326D01*
X0041917Y0121460D01*
X0041857Y0121595D01*
X0041801Y0121732D01*
X0041748Y0121871D01*
X0041700Y0122011D01*
X0041655Y0122152D01*
X0041614Y0122294D01*
X0041576Y0122437D01*
X0041543Y0122581D01*
X0041513Y0122726D01*
X0041487Y0122872D01*
X0041466Y0123018D01*
X0041448Y0123165D01*
X0041434Y0123312D01*
X0041424Y0123460D01*
X0041418Y0123608D01*
X0041416Y0123756D01*
M02*
